<svg width="36" height="36" viewBox="0 0 36 36" fill="none" xmlns="http://www.w3.org/2000/svg">
<g filter="url(#filter0_d_2678_1478)">
<g filter="url(#filter1_b_2678_1478)">
<path d="M12.8371 5.45314C13.0849 5.57531 13.397 5.44602 13.4859 5.18441C14.9276 0.938532 21.0724 0.938532 22.5141 5.18441C22.603 5.44602 22.9151 5.57531 23.1629 5.45314C27.1847 3.47033 31.5297 7.81533 29.5469 11.8371C29.4247 12.0849 29.554 12.397 29.8156 12.4859C34.0615 13.9276 34.0615 20.0724 29.8156 21.5141C29.554 21.603 29.4247 21.9151 29.5469 22.1629C31.5297 26.1847 27.1847 30.5297 23.1629 28.5469C22.9151 28.4247 22.603 28.554 22.5141 28.8156C21.0724 33.0615 14.9276 33.0615 13.4859 28.8156C13.397 28.554 13.0849 28.4247 12.8371 28.5469C8.81533 30.5297 4.47033 26.1847 6.45314 22.1629C6.57531 21.9151 6.44602 21.603 6.18441 21.5141C1.93853 20.0724 1.93853 13.9276 6.18441 12.4859C6.44602 12.397 6.57531 12.0849 6.45314 11.8371C4.47033 7.81533 8.81533 3.47033 12.8371 5.45314Z" fill="#FF2C14" fill-opacity="0.6"/>
<path d="M13.0246 4.98824C8.59508 2.84023 3.84023 7.59508 5.98824 12.0246C1.33725 13.6378 1.33725 20.3622 5.98824 21.9754C3.84023 26.4049 8.59508 31.1598 13.0246 29.0118C14.6378 33.6627 21.3622 33.6627 22.9754 29.0118C27.4049 31.1598 32.1598 26.4049 30.0118 21.9754C34.6627 20.3622 34.6627 13.6378 30.0118 12.0246C32.1598 7.59509 27.4049 2.84024 22.9754 4.98824C21.3622 0.337254 14.6378 0.337254 13.0246 4.98824Z" stroke="white" stroke-opacity="0.5"/>
</g>
<circle cx="20" cy="24" r="1" fill="#121212"/>
<circle cx="26" cy="17" r="1" fill="#121212"/>
<circle cx="11" cy="15" r="1" fill="#121212"/>
<path fill-rule="evenodd" clip-rule="evenodd" d="M22.8999 14.8C22.0158 14.1369 20.8183 14.0751 19.8707 14.6437L19.5144 14.8575C19.0408 15.1416 18.4266 14.988 18.1424 14.5145C17.8583 14.0409 18.0118 13.4266 18.4854 13.1425L18.8417 12.9287C20.4866 11.9418 22.5653 12.049 24.0999 13.2C24.5417 13.5313 24.6313 14.1581 24.2999 14.6C23.9685 15.0418 23.3417 15.1313 22.8999 14.8Z" fill="#121212"/>
<path fill-rule="evenodd" clip-rule="evenodd" d="M15.4453 21.832C14.9697 21.515 14.3365 21.5777 13.9324 21.9819L13.7071 22.2071C13.3166 22.5976 12.6834 22.5976 12.2929 22.2071C11.9024 21.8166 11.9024 21.1834 12.2929 20.7929L12.5181 20.5676C13.5964 19.4894 15.2859 19.3221 16.5547 20.1679C17.0142 20.4743 17.1384 21.0952 16.8321 21.5547C16.5257 22.0142 15.9048 22.1384 15.4453 21.832Z" fill="#121212"/>
</g>
<defs>
<filter id="filter0_d_2678_1478" x="0" y="0" width="36" height="36" filterUnits="userSpaceOnUse" color-interpolation-filters="sRGB">
<feFlood flood-opacity="0" result="BackgroundImageFix"/>
<feColorMatrix in="SourceAlpha" type="matrix" values="0 0 0 0 0 0 0 0 0 0 0 0 0 0 0 0 0 0 127 0" result="hardAlpha"/>
<feOffset dy="1"/>
<feGaussianBlur stdDeviation="1"/>
<feColorMatrix type="matrix" values="0 0 0 0 0 0 0 0 0 0 0 0 0 0 0 0 0 0 0.1 0"/>
<feBlend mode="normal" in2="BackgroundImageFix" result="effect1_dropShadow_2678_1478"/>
<feBlend mode="normal" in="SourceGraphic" in2="effect1_dropShadow_2678_1478" result="shape"/>
</filter>
<filter id="filter1_b_2678_1478" x="-8" y="-9" width="52" height="52" filterUnits="userSpaceOnUse" color-interpolation-filters="sRGB">
<feFlood flood-opacity="0" result="BackgroundImageFix"/>
<feGaussianBlur in="BackgroundImageFix" stdDeviation="5"/>
<feComposite in2="SourceAlpha" operator="in" result="effect1_backgroundBlur_2678_1478"/>
<feBlend mode="normal" in="SourceGraphic" in2="effect1_backgroundBlur_2678_1478" result="shape"/>
</filter>
</defs>
</svg>
