<svg width="22" height="34" viewBox="0 0 22 34" fill="none" xmlns="http://www.w3.org/2000/svg">
<path d="M8.7331 2.59159C9.62954 0.469472 12.3705 0.469471 13.2669 2.59159L20.1904 18.9812C22.9969 25.6248 18.1619 33 11 33C3.83812 33 -0.996889 25.6248 1.80958 18.9812L8.7331 2.59159Z" fill="#E6E6E6" fill-opacity="0.6"/>
<path d="M20.651 18.7867L13.7275 2.39702C13.2022 1.15339 12.1131 0.5 11 0.5C9.88694 0.5 8.79785 1.1534 8.27251 2.39702L1.34899 18.7867C-1.59425 25.7541 3.47394 33.5 11 33.5C18.5261 33.5 23.5943 25.754 20.651 18.7867Z" stroke="white" stroke-opacity="0.5"/>
<mask id="mask0_2678_885" style="mask-type:alpha" maskUnits="userSpaceOnUse" x="1" y="1" width="20" height="32">
<path d="M8.7331 2.59159C9.62954 0.469472 12.3705 0.469471 13.2669 2.59159L20.1904 18.9812C22.9969 25.6248 18.1619 33 11 33C3.83812 33 -0.996889 25.6248 1.80958 18.9812L8.7331 2.59159Z" fill="#A9DCFF"/>
</mask>
<g mask="url(#mask0_2678_885)">
<rect x="1" y="29.8" width="20" height="29.44" fill="#A9DCFF"/>
</g>
</svg>
