<svg width="24" height="24" viewBox="0 0 24 24" fill="none" xmlns="http://www.w3.org/2000/svg">
<path fill-rule="evenodd" clip-rule="evenodd" d="M12 3C12.3824 3 12.6923 3.30996 12.6923 3.69231V5.53847C12.6923 5.55067 12.692 5.5628 12.6914 5.57485C15.7079 5.89571 18.1043 8.29229 18.425 11.3089C18.4371 11.3082 18.4493 11.3079 18.4615 11.3079H20.3077C20.69 11.3079 21 11.6179 21 12.0002C21 12.3826 20.69 12.6925 20.3077 12.6925H18.4615C18.4493 12.6925 18.4371 12.6922 18.425 12.6916C18.104 15.7078 15.7076 18.1041 12.6914 18.4249C12.692 18.437 12.6923 18.4492 12.6923 18.4615V20.3077C12.6923 20.69 12.3824 21 12 21C11.6177 21 11.3077 20.69 11.3077 20.3077V18.4615C11.3077 18.4492 11.308 18.437 11.3087 18.4249C8.29239 18.104 5.89606 15.7078 5.57506 12.6916C5.56294 12.6922 5.55074 12.6925 5.53846 12.6925H3.69231C3.30996 12.6925 3 12.3826 3 12.0002C3 11.6179 3.30996 11.3079 3.69231 11.3079H5.53846C5.55072 11.3079 5.56289 11.3082 5.57499 11.3089C5.89569 8.2923 8.29215 5.89572 11.3086 5.57485C11.308 5.5628 11.3077 5.55068 11.3077 5.53847V3.69231C11.3077 3.30996 11.6177 3 12 3ZM17.0769 11.9999C17.0769 14.8038 14.8039 17.0768 12 17.0768C9.19611 17.0768 6.92309 14.8038 6.92309 11.9999C6.92309 9.19594 9.19611 6.92292 12 6.92292C14.8039 6.92292 17.0769 9.19594 17.0769 11.9999ZM12 15.6924C14.0392 15.6924 15.6923 14.0393 15.6923 12.0001C15.6923 9.96085 14.0392 8.30774 12 8.30774C9.96079 8.30774 8.30769 9.96085 8.30769 12.0001C8.30769 14.0393 9.96079 15.6924 12 15.6924Z" fill="#121212"/>
</svg>
