<svg width="24" height="24" viewBox="0 0 24 24" fill="none" xmlns="http://www.w3.org/2000/svg">
<path d="M20 12V5.77778C20 5.30628 19.8127 4.8541 19.4793 4.5207C19.1459 4.1873 18.6937 4 18.2222 4H5.77778C5.30628 4 4.8541 4.1873 4.5207 4.5207C4.1873 4.8541 4 5.30628 4 5.77778V15.5556M20 12V18.2222C20 18.6937 19.8127 19.1459 19.4793 19.4793C19.1459 19.8127 18.6937 20 18.2222 20H15.5556M20 12C14.2738 12 11.0178 13.7644 9.28444 15.7716M4 15.5556V18.2222C4 18.6937 4.1873 19.1459 4.5207 19.4793C4.8541 19.8127 5.30628 20 5.77778 20H15.5556M4 15.5556C5.24711 15.3476 7.23289 15.2951 9.28444 15.7716M15.5556 20C14.0409 17.5396 11.6204 16.3129 9.28444 15.7716M8.88889 7.55556C8.44444 7.55556 7.55556 7.82222 7.55556 8.88889C7.55556 9.95556 8.44444 10.2222 8.88889 10.2222C9.33333 10.2222 10.2222 9.95556 10.2222 8.88889C10.2222 7.82222 9.33333 7.55556 8.88889 7.55556Z" stroke="black" stroke-width="2" stroke-linecap="round" stroke-linejoin="round"/>
</svg>
