<svg width="24" height="24" viewBox="0 0 24 24" fill="none" xmlns="http://www.w3.org/2000/svg">
<g filter="url(#filter0_b_2350_1032)">
<rect width="24" height="24" rx="4" fill="white" fill-opacity="0.6"/>
<g filter="url(#filter1_f_2350_1032)">
<path fill-rule="evenodd" clip-rule="evenodd" d="M13.6588 12.7169C13.6985 12.5712 13.5792 12.4244 13.4039 12.4032L10.3683 12.0354C10.2067 12.0159 10.0614 12.1115 10.0438 12.249L9.54972 16.1088C9.53212 16.2463 9.64886 16.3737 9.81047 16.3933L10.6723 16.4977C10.8339 16.5173 10.9506 16.6446 10.933 16.7822L10.479 20.3294C10.4453 20.5921 10.8509 20.7262 11.0191 20.5079L14.5407 15.9366C14.6592 15.7828 14.5427 15.5708 14.3251 15.5445L13.2637 15.4159C13.0884 15.3947 12.9691 15.2479 13.0088 15.1023L13.6588 12.7169Z" fill="#FFC329" fill-opacity="0.8"/>
</g>
<g filter="url(#filter2_b_2350_1032)">
<path fill-rule="evenodd" clip-rule="evenodd" d="M13.6588 12.7169C13.6985 12.5712 13.5792 12.4244 13.4039 12.4032L10.3683 12.0354C10.2067 12.0159 10.0614 12.1115 10.0438 12.249L9.54972 16.1088C9.53212 16.2463 9.64886 16.3737 9.81047 16.3933L10.6723 16.4977C10.8339 16.5173 10.9506 16.6446 10.933 16.7822L10.479 20.3294C10.4453 20.5921 10.8509 20.7262 11.0191 20.5079L14.5407 15.9366C14.6592 15.7828 14.5427 15.5708 14.3251 15.5445L13.2637 15.4159C13.0884 15.3947 12.9691 15.2479 13.0088 15.1023L13.6588 12.7169Z" fill="#FFC329" fill-opacity="0.8"/>
</g>
<g filter="url(#filter3_b_2350_1032)">
<path d="M16.2353 14C18.8668 14 21 12.2952 21 10.1923C21 8.20447 19.0939 6.57241 16.6626 6.39972C16.1794 4.46107 14.0385 3 11.4706 3C8.54673 3 6.17647 4.89418 6.17647 7.23077C6.17647 7.2663 6.17702 7.30174 6.17811 7.33706C4.35057 7.71234 3 9.03782 3 10.6154C3 12.4847 4.89621 14 7.23529 14H16.2353Z" fill="#CCCCCC" fill-opacity="0.7"/>
</g>
<path d="M5.38823 15.483C5.4597 15.2162 5.73387 15.0579 6.0006 15.1294C6.26734 15.2009 6.42563 15.475 6.35416 15.7418L6.09534 16.7077C6.02387 16.9744 5.7497 17.1327 5.48296 17.0613C5.21623 16.9898 5.05794 16.7156 5.12941 16.4489L5.38823 15.483Z" fill="#5EB0FF" fill-opacity="0.8"/>
<path d="M16.3882 15.483C16.4597 15.2162 16.7339 15.0579 17.0006 15.1294C17.2673 15.2009 17.4256 15.475 17.3542 15.7418L17.0953 16.7077C17.0239 16.9744 16.7497 17.1327 16.483 17.0613C16.2162 16.9898 16.0579 16.7156 16.1294 16.4489L16.3882 15.483Z" fill="#5EB0FF" fill-opacity="0.8"/>
<path d="M7.38823 18.483C7.4597 18.2162 7.73387 18.0579 8.0006 18.1294C8.26734 18.2009 8.42563 18.475 8.35416 18.7418L8.09534 19.7077C8.02387 19.9744 7.7497 20.1327 7.48296 20.0613C7.21623 19.9898 7.05794 19.7156 7.12941 19.4489L7.38823 18.483Z" fill="#5EB0FF" fill-opacity="0.8"/>
<path d="M18.3882 18.483C18.4597 18.2162 18.7339 18.0579 19.0006 18.1294C19.2673 18.2009 19.4256 18.475 19.3542 18.7418L19.0953 19.7077C19.0239 19.9744 18.7497 20.1327 18.483 20.0613C18.2162 19.9898 18.0579 19.7156 18.1294 19.4489L18.3882 18.483Z" fill="#5EB0FF" fill-opacity="0.8"/>
</g>
<defs>
<filter id="filter0_b_2350_1032" x="-4" y="-4" width="32" height="32" filterUnits="userSpaceOnUse" color-interpolation-filters="sRGB">
<feFlood flood-opacity="0" result="BackgroundImageFix"/>
<feGaussianBlur in="BackgroundImageFix" stdDeviation="2"/>
<feComposite in2="SourceAlpha" operator="in" result="effect1_backgroundBlur_2350_1032"/>
<feBlend mode="normal" in="SourceGraphic" in2="effect1_backgroundBlur_2350_1032" result="shape"/>
</filter>
<filter id="filter1_f_2350_1032" x="8.54797" y="11.033" width="7.03997" height="10.5842" filterUnits="userSpaceOnUse" color-interpolation-filters="sRGB">
<feFlood flood-opacity="0" result="BackgroundImageFix"/>
<feBlend mode="normal" in="SourceGraphic" in2="BackgroundImageFix" result="shape"/>
<feGaussianBlur stdDeviation="0.5" result="effect1_foregroundBlur_2350_1032"/>
</filter>
<filter id="filter2_b_2350_1032" x="7.54797" y="10.033" width="9.03997" height="12.5842" filterUnits="userSpaceOnUse" color-interpolation-filters="sRGB">
<feFlood flood-opacity="0" result="BackgroundImageFix"/>
<feGaussianBlur in="BackgroundImageFix" stdDeviation="1"/>
<feComposite in2="SourceAlpha" operator="in" result="effect1_backgroundBlur_2350_1032"/>
<feBlend mode="normal" in="SourceGraphic" in2="effect1_backgroundBlur_2350_1032" result="shape"/>
</filter>
<filter id="filter3_b_2350_1032" x="2" y="2" width="20" height="13" filterUnits="userSpaceOnUse" color-interpolation-filters="sRGB">
<feFlood flood-opacity="0" result="BackgroundImageFix"/>
<feGaussianBlur in="BackgroundImageFix" stdDeviation="0.5"/>
<feComposite in2="SourceAlpha" operator="in" result="effect1_backgroundBlur_2350_1032"/>
<feBlend mode="normal" in="SourceGraphic" in2="effect1_backgroundBlur_2350_1032" result="shape"/>
</filter>
</defs>
</svg>
