<svg width="84" height="82" viewBox="0 0 84 82" fill="none" xmlns="http://www.w3.org/2000/svg">
<g filter="url(#filter0_bdd_2783_2277)">
<path d="M48.3221 28.3135H31.6776C31.3652 28.3135 31.1733 28.6556 31.3363 28.9222L39.1467 41.6945C39.5367 42.3322 40.463 42.3322 40.853 41.6945L48.6633 28.9222C48.8263 28.6556 48.6345 28.3135 48.3221 28.3135Z" fill="#7EC5FF" fill-opacity="0.6"/>
<path d="M48.3221 27.8135H31.6776C30.9746 27.8135 30.543 28.5833 30.9098 29.183L38.7201 41.9553C39.3051 42.9119 40.6945 42.9119 41.2795 41.9553L49.0899 29.183C49.4566 28.5833 49.025 27.8135 48.3221 27.8135Z" stroke="white" stroke-opacity="0.5" stroke-linecap="square"/>
<path fill-rule="evenodd" clip-rule="evenodd" d="M42.1931 23.6282C41.7239 23.9012 41.207 24.0827 40.6714 24.1654V25.8493C40.7719 25.8798 40.8707 25.9174 40.9669 25.962L58.4404 34.0517C60.5883 35.0461 59.8553 38.1642 57.4737 38.1642H22.5267C20.145 38.1642 19.412 35.0461 21.5599 34.0517L39.0334 25.962C39.1297 25.9174 39.2284 25.8798 39.3289 25.8493V23.1171C39.3289 23.008 39.4204 22.9195 39.5333 22.9195C40.1238 22.8975 41.0352 22.7034 41.4621 22.455C41.9424 22.1756 42.3261 21.7648 42.5647 21.2746C42.8034 20.7845 42.8863 20.2369 42.803 19.7012C42.7196 19.1655 42.4737 18.6657 42.0965 18.2651C41.7192 17.8644 41.2274 17.5808 40.6834 17.4503C40.1394 17.3197 39.5675 17.3479 39.04 17.5314C38.5126 17.715 38.0534 18.0455 37.7203 18.4812C37.4763 18.8005 37.3081 19.1657 37.2253 19.5509C37.1749 19.7848 36.9689 19.9704 36.722 19.9592L36.2005 19.9354C35.9536 19.9242 35.7605 19.721 35.798 19.4849C35.9022 18.829 36.1698 18.2049 36.5804 17.6676C37.0799 17.014 37.7688 16.5182 38.56 16.2429C39.3511 15.9677 40.2089 15.9253 41.025 16.1211C41.841 16.317 42.5787 16.7424 43.1446 17.3433C43.7105 17.9443 44.0793 18.694 44.2043 19.4976C44.3294 20.3011 44.205 21.1224 43.847 21.8577C43.489 22.593 42.9135 23.2091 42.1931 23.6282ZM40.3869 27.132L57.8604 35.2218C58.7195 35.6195 58.4263 36.8668 57.4737 36.8668H22.5267C21.574 36.8668 21.2808 35.6195 22.14 35.2218L39.6135 27.132C39.858 27.0188 40.1424 27.0188 40.3869 27.132Z" fill="black"/>
<path d="M30.9643 28.3135L40 41.4478L49.0357 28.3135L56.2166 31.0736C58.3569 31.8962 59.8411 33.8667 60.0411 36.1508L62.5893 65.2538L62.9116 68.4749C62.962 68.9788 62.6278 69.4409 62.1334 69.5507L55.6071 71H40H24.3929L17.8666 69.5507C17.3722 69.4409 17.038 68.9788 17.0884 68.4749L17.4107 65.2538L19.9589 36.1508C20.1589 33.8667 21.6431 31.8962 23.7834 31.0736L30.9643 28.3135Z" fill="white"/>
<path d="M30.9643 28.3135L40 41.4478L49.0357 28.3135L56.2166 31.0736C58.3569 31.8962 59.8411 33.8667 60.0411 36.1508L62.5893 65.2538L62.9116 68.4749C62.962 68.9788 62.6278 69.4409 62.1334 69.5507L55.6071 71H40H24.3929L17.8666 69.5507C17.3722 69.4409 17.038 68.9788 17.0884 68.4749L17.4107 65.2538L19.9589 36.1508C20.1589 33.8667 21.6431 31.8962 23.7834 31.0736L30.9643 28.3135Z" fill="#7EC5FF" fill-opacity="0.6"/>
<path d="M40 71V41.4478M40 71H24.3929M40 71H55.6071M40 41.4478L30.9643 28.3135M40 41.4478L29.3214 34.8806L30.9643 28.3135M40 41.4478L49.0357 28.3135M40 41.4478L50.6786 34.8806L49.0357 28.3135M30.9643 28.3135L23.7834 31.0736C21.6431 31.8962 20.1589 33.8667 19.9589 36.1508L17.4107 65.2538M24.3929 71L17.8666 69.5507C17.3722 69.4409 17.038 68.9788 17.0884 68.4749L17.4107 65.2538M24.3929 71V66.8956M25.2143 41.4478L24.3929 66.8956M17.4107 65.2538L24.3929 66.8956M49.0357 28.3135L56.2166 31.0736C58.3569 31.8962 59.8411 33.8667 60.0411 36.1508L62.5893 65.2538M55.6071 71L62.1334 69.5507C62.6278 69.4409 62.962 68.9788 62.9116 68.4749L62.5893 65.2538M55.6071 71V66.8956M54.7857 41.4478L55.6071 66.8956M62.5893 65.2538L55.6071 66.8956" stroke="white" stroke-opacity="0.5" stroke-width="2" stroke-linecap="round"/>
</g>
<defs>
<filter id="filter0_bdd_2783_2277" x="-3.91675" y="-4" width="91.8335" height="100" filterUnits="userSpaceOnUse" color-interpolation-filters="sRGB">
<feFlood flood-opacity="0" result="BackgroundImageFix"/>
<feGaussianBlur in="BackgroundImageFix" stdDeviation="10"/>
<feComposite in2="SourceAlpha" operator="in" result="effect1_backgroundBlur_2783_2277"/>
<feColorMatrix in="SourceAlpha" type="matrix" values="0 0 0 0 0 0 0 0 0 0 0 0 0 0 0 0 0 0 127 0" result="hardAlpha"/>
<feOffset dx="4" dy="4"/>
<feGaussianBlur stdDeviation="10"/>
<feComposite in2="hardAlpha" operator="out"/>
<feColorMatrix type="matrix" values="0 0 0 0 0 0 0 0 0 0 0 0 0 0 0 0 0 0 0.05 0"/>
<feBlend mode="normal" in2="effect1_backgroundBlur_2783_2277" result="effect2_dropShadow_2783_2277"/>
<feColorMatrix in="SourceAlpha" type="matrix" values="0 0 0 0 0 0 0 0 0 0 0 0 0 0 0 0 0 0 127 0" result="hardAlpha"/>
<feOffset/>
<feGaussianBlur stdDeviation="1"/>
<feComposite in2="hardAlpha" operator="out"/>
<feColorMatrix type="matrix" values="0 0 0 0 0 0 0 0 0 0 0 0 0 0 0 0 0 0 0.05 0"/>
<feBlend mode="normal" in2="effect2_dropShadow_2783_2277" result="effect3_dropShadow_2783_2277"/>
<feBlend mode="normal" in="SourceGraphic" in2="effect3_dropShadow_2783_2277" result="shape"/>
</filter>
</defs>
</svg>
