<svg width="87" height="71" viewBox="0 0 87 71" fill="none" xmlns="http://www.w3.org/2000/svg">
<path fill-rule="evenodd" clip-rule="evenodd" d="M45.2123 12.6282C44.7389 12.9012 44.2174 13.0827 43.6772 13.1654V14.8493C43.7785 14.8798 43.8781 14.9174 43.9753 14.962L61.6031 23.0517C63.77 24.0461 63.0305 27.1642 60.6278 27.1642H25.3722C22.9694 27.1642 22.23 24.0461 24.3969 23.0517L42.0247 14.962C42.1218 14.9174 42.2214 14.8798 42.3228 14.8493V12.1171C42.3228 12.008 42.4151 11.9196 42.529 11.9196C43.1247 11.8975 44.0441 11.7034 44.4748 11.455C44.9593 11.1756 45.3464 10.7648 45.5872 10.2746C45.828 9.78446 45.9116 9.2369 45.8275 8.7012C45.7434 8.1655 45.4954 7.66572 45.1148 7.26506C44.7342 6.86439 44.2381 6.58084 43.6892 6.45026C43.1404 6.31968 42.5634 6.34793 42.0314 6.53144C41.4993 6.71496 41.036 7.04549 40.7 7.48125C40.4538 7.80048 40.2842 8.16568 40.2005 8.55092C40.1498 8.78477 39.9419 8.97041 39.6929 8.95917L39.1667 8.93541C38.9177 8.92417 38.7229 8.72099 38.7607 8.48491C38.8659 7.82897 39.1357 7.2049 39.55 6.66763C40.0539 6.014 40.7489 5.5182 41.547 5.24293C42.3452 4.96765 43.2106 4.92528 44.0338 5.12115C44.8571 5.31702 45.6012 5.74235 46.1722 6.34335C46.7431 6.94434 47.1151 7.69402 47.2413 8.49756C47.3674 9.30111 47.2419 10.1224 46.8808 10.8577C46.5196 11.593 45.939 12.2091 45.2123 12.6282ZM43.3901 16.132L61.0179 24.2218C61.8846 24.6196 61.5889 25.8668 60.6278 25.8668H25.3722C24.4111 25.8668 24.1153 24.6196 24.982 24.2218L42.6098 16.132C42.8565 16.0188 43.1434 16.0188 43.3901 16.132Z" fill="black"/>
<g filter="url(#filter0_bdd_2783_1140)">
<path fill-rule="evenodd" clip-rule="evenodd" d="M54.0041 18.0013C53.0567 17.6754 52.0294 18.114 51.4501 18.9315C49.5128 21.6655 46.4486 23.4307 43 23.4307C39.5203 23.4307 36.432 21.6335 34.4978 18.8573C33.9149 18.0206 32.8652 17.5732 31.905 17.9165L29.9407 18.6188C25.7105 20.1312 22.3111 23.3523 20.5731 27.4948L17.2806 35.3426C16.8438 36.3838 17.355 37.5801 18.4095 37.984L27.0893 41.309V57.9999C27.0893 59.1045 27.9848 59.9999 29.0893 59.9999H56.9107C58.0153 59.9999 58.9107 59.1045 58.9107 57.9999V41.309L67.5906 37.984C68.6451 37.5801 69.1563 36.3838 68.7194 35.3426L65.4715 27.601C63.7076 23.3967 60.2338 20.1446 55.9225 18.6613L54.0041 18.0013Z" fill="#FFD65E" fill-opacity="0.8" shape-rendering="crispEdges"/>
<path d="M27.0893 41.309L18.4095 37.984C17.355 37.5801 16.8438 36.3838 17.2806 35.3426L20.5731 27.4948C22.3111 23.3523 25.7105 20.1312 29.9407 18.6188L31.905 17.9165C32.8652 17.5732 33.9149 18.0206 34.4978 18.8573C36.432 21.6335 39.5204 23.4307 43 23.4307C46.4486 23.4307 49.5128 21.6655 51.4501 18.9315C52.0294 18.114 53.0567 17.6754 54.0041 18.0013L55.9225 18.6613C60.2338 20.1446 63.7076 23.3967 65.4715 27.601L68.7194 35.3426C69.1563 36.3838 68.6451 37.5801 67.5906 37.984L58.9107 41.309M27.0893 41.309V57.9999C27.0893 59.1045 27.9848 59.9999 29.0893 59.9999H56.9107C58.0153 59.9999 58.9107 59.1045 58.9107 57.9999V41.309M27.0893 41.309V33.9951M58.9107 41.309V33.9951" stroke="white" stroke-opacity="0.5" stroke-width="2" stroke-linecap="round" shape-rendering="crispEdges"/>
</g>
<defs>
<filter id="filter0_bdd_2783_1140" x="-3.87598" y="-3.20178" width="97.752" height="88.2018" filterUnits="userSpaceOnUse" color-interpolation-filters="sRGB">
<feFlood flood-opacity="0" result="BackgroundImageFix"/>
<feGaussianBlur in="BackgroundImageFix" stdDeviation="10"/>
<feComposite in2="SourceAlpha" operator="in" result="effect1_backgroundBlur_2783_1140"/>
<feColorMatrix in="SourceAlpha" type="matrix" values="0 0 0 0 0 0 0 0 0 0 0 0 0 0 0 0 0 0 127 0" result="hardAlpha"/>
<feOffset dx="4" dy="4"/>
<feGaussianBlur stdDeviation="10"/>
<feComposite in2="hardAlpha" operator="out"/>
<feColorMatrix type="matrix" values="0 0 0 0 0 0 0 0 0 0 0 0 0 0 0 0 0 0 0.05 0"/>
<feBlend mode="normal" in2="effect1_backgroundBlur_2783_1140" result="effect2_dropShadow_2783_1140"/>
<feColorMatrix in="SourceAlpha" type="matrix" values="0 0 0 0 0 0 0 0 0 0 0 0 0 0 0 0 0 0 127 0" result="hardAlpha"/>
<feOffset/>
<feGaussianBlur stdDeviation="1"/>
<feComposite in2="hardAlpha" operator="out"/>
<feColorMatrix type="matrix" values="0 0 0 0 0 0 0 0 0 0 0 0 0 0 0 0 0 0 0.05 0"/>
<feBlend mode="normal" in2="effect2_dropShadow_2783_1140" result="effect3_dropShadow_2783_1140"/>
<feBlend mode="normal" in="SourceGraphic" in2="effect3_dropShadow_2783_1140" result="shape"/>
</filter>
</defs>
</svg>
