<svg width="24" height="24" viewBox="0 0 24 24" fill="none" xmlns="http://www.w3.org/2000/svg">
<g filter="url(#filter0_b_2350_1024)">
<rect width="24" height="24" rx="4" fill="white" fill-opacity="0.6"/>
<path d="M7.13878 14.5796C7.22454 14.2595 7.55354 14.0695 7.87362 14.1553C8.1937 14.2411 8.38365 14.5701 8.29789 14.8901L7.05556 19.5266C6.96979 19.8467 6.64079 20.0366 6.32071 19.9508C6.00063 19.8651 5.81068 19.5361 5.89644 19.216L7.13878 14.5796Z" fill="#298CFF" fill-opacity="0.8"/>
<path d="M13.1388 14.5796C13.2246 14.2595 13.5536 14.0695 13.8737 14.1553C14.1937 14.2411 14.3837 14.5701 14.2979 14.8901L13.0556 19.5266C12.9698 19.8467 12.6408 20.0366 12.3207 19.9508C12.0007 19.8651 11.8107 19.5361 11.8965 19.216L13.1388 14.5796Z" fill="#298CFF" fill-opacity="0.8"/>
<path d="M10.1388 14.5796C10.2246 14.2595 10.5536 14.0695 10.8737 14.1553C11.1937 14.2411 11.3837 14.5701 11.2979 14.8901L10.0556 19.5266C9.96982 19.8467 9.64082 20.0366 9.32074 19.9508C9.00066 19.8651 8.81071 19.5361 8.89648 19.216L10.1388 14.5796Z" fill="#298CFF" fill-opacity="0.8"/>
<path d="M16.1388 14.5796C16.2246 14.2595 16.5536 14.0695 16.8737 14.1553C17.1937 14.2411 17.3837 14.5701 17.2979 14.8901L16.0556 19.5266C15.9698 19.8467 15.6408 20.0366 15.3207 19.9508C15.0007 19.8651 14.8107 19.5361 14.8965 19.216L16.1388 14.5796Z" fill="#298CFF" fill-opacity="0.8"/>
<g filter="url(#filter1_b_2350_1024)">
<path d="M16.2353 15C18.8668 15 21 13.2952 21 11.1923C21 9.20447 19.0939 7.57241 16.6626 7.39972C16.1794 5.46107 14.0385 4 11.4706 4C8.54673 4 6.17647 5.89418 6.17647 8.23077C6.17647 8.2663 6.17702 8.30174 6.17811 8.33706C4.35057 8.71234 3 10.0378 3 11.6154C3 13.4847 4.89621 15 7.23529 15H16.2353Z" fill="#CCCCCC" fill-opacity="0.7"/>
</g>
</g>
<defs>
<filter id="filter0_b_2350_1024" x="-4" y="-4" width="32" height="32" filterUnits="userSpaceOnUse" color-interpolation-filters="sRGB">
<feFlood flood-opacity="0" result="BackgroundImageFix"/>
<feGaussianBlur in="BackgroundImageFix" stdDeviation="2"/>
<feComposite in2="SourceAlpha" operator="in" result="effect1_backgroundBlur_2350_1024"/>
<feBlend mode="normal" in="SourceGraphic" in2="effect1_backgroundBlur_2350_1024" result="shape"/>
</filter>
<filter id="filter1_b_2350_1024" x="2" y="3" width="20" height="13" filterUnits="userSpaceOnUse" color-interpolation-filters="sRGB">
<feFlood flood-opacity="0" result="BackgroundImageFix"/>
<feGaussianBlur in="BackgroundImageFix" stdDeviation="0.5"/>
<feComposite in2="SourceAlpha" operator="in" result="effect1_backgroundBlur_2350_1024"/>
<feBlend mode="normal" in="SourceGraphic" in2="effect1_backgroundBlur_2350_1024" result="shape"/>
</filter>
</defs>
</svg>
