<svg width="24" height="24" viewBox="0 0 24 24" fill="none" xmlns="http://www.w3.org/2000/svg">
<g filter="url(#filter0_b_2350_1020)">
<rect width="24" height="24" rx="4" fill="white" fill-opacity="0.6"/>
<g filter="url(#filter1_f_2350_1020)">
<path fill-rule="evenodd" clip-rule="evenodd" d="M20.9736 8.48182C21.1046 8.1764 20.7207 7.93443 20.4207 8.07729C19.9816 8.28636 19.4902 8.40337 18.9715 8.40337C17.1074 8.40337 15.5963 6.8922 15.5963 5.02808C15.5963 4.50954 15.7132 4.01831 15.9221 3.57932C16.0649 3.27925 15.8229 2.89537 15.5175 3.0264C14.037 3.66165 13 5.13262 13 6.8458C13 9.1401 14.8598 11 17.1541 11C18.8674 11 20.3385 9.96269 20.9736 8.48182Z" fill="#FFC329" fill-opacity="0.8"/>
</g>
<g filter="url(#filter2_d_2350_1020)">
<path fill-rule="evenodd" clip-rule="evenodd" d="M20.9736 8.48182C21.1046 8.1764 20.7207 7.93443 20.4207 8.07729C19.9816 8.28636 19.4902 8.40337 18.9715 8.40337C17.1074 8.40337 15.5963 6.8922 15.5963 5.02808C15.5963 4.50954 15.7132 4.01831 15.9221 3.57932C16.0649 3.27925 15.8229 2.89537 15.5175 3.0264C14.037 3.66165 13 5.13262 13 6.8458C13 9.1401 14.8598 11 17.1541 11C18.8674 11 20.3385 9.96269 20.9736 8.48182Z" fill="#FFC329" fill-opacity="0.8" shape-rendering="crispEdges"/>
</g>
<g filter="url(#filter3_bd_2350_1020)">
<path d="M14.7647 16C17.1038 16 19 14.2952 19 12.1923C19 10.2045 17.3057 8.57241 15.1445 8.39972C14.715 6.46107 12.812 5 10.5294 5C7.93042 5 5.82353 6.89418 5.82353 9.23077C5.82353 9.26631 5.82402 9.30174 5.82499 9.33706C4.2005 9.71234 3 11.0378 3 12.6154C3 14.4847 4.68552 16 6.76471 16H14.7647Z" fill="#CCCCCC" fill-opacity="0.7" shape-rendering="crispEdges"/>
</g>
<path d="M6.20991 17.483C6.27762 17.2162 6.53735 17.0579 6.79005 17.1294C7.04274 17.2009 7.1927 17.475 7.12499 17.7418L6.8798 18.7077C6.81209 18.9744 6.55235 19.1327 6.29965 19.0613C6.04696 18.9898 5.897 18.7156 5.96471 18.4489L6.20991 17.483Z" fill="#5EB0FF" fill-opacity="0.8"/>
<path d="M8.56161 19.483C8.62931 19.2162 8.88905 19.0579 9.14175 19.1294C9.39444 19.2009 9.5444 19.475 9.47669 19.7418L9.2315 20.7077C9.16379 20.9744 8.90405 21.1327 8.65135 21.0613C8.39866 20.9898 8.2487 20.7156 8.31641 20.4489L8.56161 19.483Z" fill="#5EB0FF" fill-opacity="0.8"/>
<path d="M12.3511 17.483C12.4188 17.2162 12.6785 17.0579 12.9312 17.1294C13.1839 17.2009 13.3339 17.475 13.2662 17.7418L13.021 18.7077C12.9533 18.9744 12.6935 19.1327 12.4408 19.0613C12.1881 18.9898 12.0382 18.7156 12.1059 18.4489L12.3511 17.483Z" fill="#5EB0FF" fill-opacity="0.8"/>
<path d="M15.1932 19.483C15.2609 19.2162 15.5206 19.0579 15.7733 19.1294C16.026 19.2009 16.176 19.475 16.1083 19.7418L15.8631 20.7077C15.7954 20.9744 15.5356 21.1327 15.2829 21.0613C15.0303 20.9898 14.8803 20.7156 14.948 20.4489L15.1932 19.483Z" fill="#5EB0FF" fill-opacity="0.8"/>
</g>
<defs>
<filter id="filter0_b_2350_1020" x="-4" y="-4" width="32" height="32" filterUnits="userSpaceOnUse" color-interpolation-filters="sRGB">
<feFlood flood-opacity="0" result="BackgroundImageFix"/>
<feGaussianBlur in="BackgroundImageFix" stdDeviation="2"/>
<feComposite in2="SourceAlpha" operator="in" result="effect1_backgroundBlur_2350_1020"/>
<feBlend mode="normal" in="SourceGraphic" in2="effect1_backgroundBlur_2350_1020" result="shape"/>
</filter>
<filter id="filter1_f_2350_1020" x="12" y="2" width="10" height="10" filterUnits="userSpaceOnUse" color-interpolation-filters="sRGB">
<feFlood flood-opacity="0" result="BackgroundImageFix"/>
<feBlend mode="normal" in="SourceGraphic" in2="BackgroundImageFix" result="shape"/>
<feGaussianBlur stdDeviation="0.5" result="effect1_foregroundBlur_2350_1020"/>
</filter>
<filter id="filter2_d_2350_1020" x="12.5" y="2.5" width="10" height="10" filterUnits="userSpaceOnUse" color-interpolation-filters="sRGB">
<feFlood flood-opacity="0" result="BackgroundImageFix"/>
<feColorMatrix in="SourceAlpha" type="matrix" values="0 0 0 0 0 0 0 0 0 0 0 0 0 0 0 0 0 0 127 0" result="hardAlpha"/>
<feOffset dx="0.5" dy="0.5"/>
<feGaussianBlur stdDeviation="0.5"/>
<feComposite in2="hardAlpha" operator="out"/>
<feColorMatrix type="matrix" values="0 0 0 0 0 0 0 0 0 0 0 0 0 0 0 0 0 0 0.06 0"/>
<feBlend mode="normal" in2="BackgroundImageFix" result="effect1_dropShadow_2350_1020"/>
<feBlend mode="normal" in="SourceGraphic" in2="effect1_dropShadow_2350_1020" result="shape"/>
</filter>
<filter id="filter3_bd_2350_1020" x="1" y="3" width="20" height="15" filterUnits="userSpaceOnUse" color-interpolation-filters="sRGB">
<feFlood flood-opacity="0" result="BackgroundImageFix"/>
<feGaussianBlur in="BackgroundImageFix" stdDeviation="1"/>
<feComposite in2="SourceAlpha" operator="in" result="effect1_backgroundBlur_2350_1020"/>
<feColorMatrix in="SourceAlpha" type="matrix" values="0 0 0 0 0 0 0 0 0 0 0 0 0 0 0 0 0 0 127 0" result="hardAlpha"/>
<feOffset dx="0.5" dy="-0.5"/>
<feGaussianBlur stdDeviation="0.5"/>
<feComposite in2="hardAlpha" operator="out"/>
<feColorMatrix type="matrix" values="0 0 0 0 0 0 0 0 0 0 0 0 0 0 0 0 0 0 0.05 0"/>
<feBlend mode="normal" in2="effect1_backgroundBlur_2350_1020" result="effect2_dropShadow_2350_1020"/>
<feBlend mode="normal" in="SourceGraphic" in2="effect2_dropShadow_2350_1020" result="shape"/>
</filter>
</defs>
</svg>
