<svg width="24" height="24" viewBox="0 0 24 24" fill="none" xmlns="http://www.w3.org/2000/svg">
<g filter="url(#filter0_b_2350_1023)">
<rect width="24" height="24" rx="4" fill="white" fill-opacity="0.6"/>
<g filter="url(#filter1_f_2350_1023)">
<path fill-rule="evenodd" clip-rule="evenodd" d="M19.9812 14.2841C20.0979 13.9139 19.6462 13.6462 19.3186 13.8544C18.2893 14.5089 17.0678 14.8879 15.7578 14.8879C12.0875 14.8879 9.11208 11.9125 9.11208 8.24221C9.11208 6.93216 9.49114 5.71065 10.1456 4.68137C10.3538 4.35384 10.0861 3.90205 9.71591 4.01882C6.40244 5.06404 4 8.1618 4 11.8207C4 16.338 7.66201 20 12.1793 20C15.8382 20 18.936 17.5976 19.9812 14.2841Z" fill="#FFC329" fill-opacity="0.8"/>
</g>
<path fill-rule="evenodd" clip-rule="evenodd" d="M19.9812 14.2841C20.0979 13.9139 19.6462 13.6462 19.3186 13.8544C18.2893 14.5089 17.0678 14.8879 15.7578 14.8879C12.0875 14.8879 9.11208 11.9125 9.11208 8.24221C9.11208 6.93216 9.49114 5.71065 10.1456 4.68137C10.3538 4.35384 10.0861 3.90205 9.71591 4.01882C6.40244 5.06404 4 8.1618 4 11.8207C4 16.338 7.66201 20 12.1793 20C15.8382 20 18.936 17.5976 19.9812 14.2841Z" fill="#FFC329" fill-opacity="0.8"/>
<g filter="url(#filter2_f_2350_1023)">
<path d="M17.8298 4.13436C17.8838 3.95521 18.1162 3.95521 18.1702 4.13436L18.6095 5.59149C18.6248 5.64237 18.6586 5.68415 18.703 5.70707L19.8975 6.32342C20.0342 6.39396 20.0342 6.60604 19.8975 6.67658L18.703 7.29293C18.6586 7.31585 18.6248 7.35763 18.6095 7.40851L18.1702 8.86564C18.1162 9.04479 17.8838 9.04479 17.8298 8.86564L17.3905 7.40851C17.3752 7.35763 17.3414 7.31585 17.297 7.29293L16.1025 6.67658C15.9658 6.60604 15.9658 6.39396 16.1025 6.32342L17.297 5.70707C17.3414 5.68415 17.3752 5.64237 17.3905 5.59149L17.8298 4.13436Z" fill="#FFD65E" fill-opacity="0.8"/>
</g>
<path d="M17.8298 4.13436C17.8838 3.95521 18.1162 3.95521 18.1702 4.13436L18.6095 5.59149C18.6248 5.64237 18.6586 5.68415 18.703 5.70707L19.8975 6.32342C20.0342 6.39396 20.0342 6.60604 19.8975 6.67658L18.703 7.29293C18.6586 7.31585 18.6248 7.35763 18.6095 7.40851L18.1702 8.86564C18.1162 9.04479 17.8838 9.04479 17.8298 8.86564L17.3905 7.40851C17.3752 7.35763 17.3414 7.31585 17.297 7.29293L16.1025 6.67658C15.9658 6.60604 15.9658 6.39396 16.1025 6.32342L17.297 5.70707C17.3414 5.68415 17.3752 5.64237 17.3905 5.59149L17.8298 4.13436Z" fill="#FFC329" fill-opacity="0.8"/>
</g>
<defs>
<filter id="filter0_b_2350_1023" x="-4" y="-4" width="32" height="32" filterUnits="userSpaceOnUse" color-interpolation-filters="sRGB">
<feFlood flood-opacity="0" result="BackgroundImageFix"/>
<feGaussianBlur in="BackgroundImageFix" stdDeviation="2"/>
<feComposite in2="SourceAlpha" operator="in" result="effect1_backgroundBlur_2350_1023"/>
<feBlend mode="normal" in="SourceGraphic" in2="effect1_backgroundBlur_2350_1023" result="shape"/>
</filter>
<filter id="filter1_f_2350_1023" x="3" y="3" width="18" height="18" filterUnits="userSpaceOnUse" color-interpolation-filters="sRGB">
<feFlood flood-opacity="0" result="BackgroundImageFix"/>
<feBlend mode="normal" in="SourceGraphic" in2="BackgroundImageFix" result="shape"/>
<feGaussianBlur stdDeviation="0.5" result="effect1_foregroundBlur_2350_1023"/>
</filter>
<filter id="filter2_f_2350_1023" x="15" y="3" width="6" height="7" filterUnits="userSpaceOnUse" color-interpolation-filters="sRGB">
<feFlood flood-opacity="0" result="BackgroundImageFix"/>
<feBlend mode="normal" in="SourceGraphic" in2="BackgroundImageFix" result="shape"/>
<feGaussianBlur stdDeviation="0.5" result="effect1_foregroundBlur_2350_1023"/>
</filter>
</defs>
</svg>
