<svg width="24" height="24" viewBox="0 0 24 24" fill="none" xmlns="http://www.w3.org/2000/svg">
<g filter="url(#filter0_b_2350_1018)">
<rect width="24" height="24" rx="4" fill="white" fill-opacity="0.6"/>
<g filter="url(#filter1_f_2350_1018)">
<circle cx="16.95" cy="10.05" r="4.05" fill="#FFC329"/>
</g>
<circle cx="16.95" cy="10.05" r="4.05" fill="#FFC329" fill-opacity="0.8"/>
<circle cx="16.95" cy="10.05" r="4.25" stroke="white" stroke-opacity="0.3" stroke-width="0.4"/>
<g filter="url(#filter2_bd_2350_1018)">
<path d="M16.2353 18.5999C18.8668 18.5999 21 16.7867 21 14.5499C21 12.4356 19.0939 10.6996 16.6626 10.516C16.1794 8.45395 14.0385 6.8999 11.4706 6.8999C8.54673 6.8999 6.17647 8.91462 6.17647 11.3999C6.17647 11.4377 6.17702 11.4754 6.17811 11.513C4.35057 11.9121 3 13.3219 3 14.9999C3 16.9881 4.89621 18.5999 7.23529 18.5999H16.2353Z" fill="#CCCCCC" fill-opacity="0.7" shape-rendering="crispEdges"/>
</g>
</g>
<defs>
<filter id="filter0_b_2350_1018" x="-4" y="-4" width="32" height="32" filterUnits="userSpaceOnUse" color-interpolation-filters="sRGB">
<feFlood flood-opacity="0" result="BackgroundImageFix"/>
<feGaussianBlur in="BackgroundImageFix" stdDeviation="2"/>
<feComposite in2="SourceAlpha" operator="in" result="effect1_backgroundBlur_2350_1018"/>
<feBlend mode="normal" in="SourceGraphic" in2="effect1_backgroundBlur_2350_1018" result="shape"/>
</filter>
<filter id="filter1_f_2350_1018" x="11.9" y="5" width="10.1" height="10.1001" filterUnits="userSpaceOnUse" color-interpolation-filters="sRGB">
<feFlood flood-opacity="0" result="BackgroundImageFix"/>
<feBlend mode="normal" in="SourceGraphic" in2="BackgroundImageFix" result="shape"/>
<feGaussianBlur stdDeviation="0.5" result="effect1_foregroundBlur_2350_1018"/>
</filter>
<filter id="filter2_bd_2350_1018" x="1" y="4.8999" width="22" height="15.7" filterUnits="userSpaceOnUse" color-interpolation-filters="sRGB">
<feFlood flood-opacity="0" result="BackgroundImageFix"/>
<feGaussianBlur in="BackgroundImageFix" stdDeviation="1"/>
<feComposite in2="SourceAlpha" operator="in" result="effect1_backgroundBlur_2350_1018"/>
<feColorMatrix in="SourceAlpha" type="matrix" values="0 0 0 0 0 0 0 0 0 0 0 0 0 0 0 0 0 0 127 0" result="hardAlpha"/>
<feOffset dx="0.5" dy="-0.5"/>
<feGaussianBlur stdDeviation="0.5"/>
<feComposite in2="hardAlpha" operator="out"/>
<feColorMatrix type="matrix" values="0 0 0 0 0 0 0 0 0 0 0 0 0 0 0 0 0 0 0.05 0"/>
<feBlend mode="normal" in2="effect1_backgroundBlur_2350_1018" result="effect2_dropShadow_2350_1018"/>
<feBlend mode="normal" in="SourceGraphic" in2="effect2_dropShadow_2350_1018" result="shape"/>
</filter>
</defs>
</svg>
