<svg width="24" height="24" viewBox="0 0 24 24" fill="none" xmlns="http://www.w3.org/2000/svg">
<g filter="url(#filter0_b_2350_1021)">
<rect width="24" height="24" rx="4" fill="white" fill-opacity="0.6"/>
<g filter="url(#filter1_f_2350_1021)">
<path fill-rule="evenodd" clip-rule="evenodd" d="M20.9762 8.93364C21.0941 8.65876 20.7486 8.44099 20.4786 8.56956C20.0834 8.75772 19.6412 8.86303 19.1743 8.86303C17.4967 8.86303 16.1366 7.50298 16.1366 5.82528C16.1366 5.35859 16.2419 4.91648 16.4299 4.52139C16.5584 4.25133 16.3406 3.90583 16.0658 4.02376C14.7333 4.59549 13.8 5.91936 13.8 7.46122C13.8 9.52609 15.4738 11.2 17.5387 11.2C19.0807 11.2 20.4047 10.2664 20.9762 8.93364Z" fill="#FFC329" fill-opacity="0.8"/>
</g>
<g filter="url(#filter2_d_2350_1021)">
<path fill-rule="evenodd" clip-rule="evenodd" d="M20.9762 8.93364C21.0941 8.65876 20.7486 8.44099 20.4786 8.56956C20.0834 8.75772 19.6412 8.86303 19.1743 8.86303C17.4967 8.86303 16.1366 7.50298 16.1366 5.82528C16.1366 5.35859 16.2419 4.91648 16.4299 4.52139C16.5584 4.25133 16.3406 3.90583 16.0658 4.02376C14.7333 4.59549 13.8 5.91936 13.8 7.46122C13.8 9.52609 15.4738 11.2 17.5387 11.2C19.0807 11.2 20.4047 10.2664 20.9762 8.93364Z" fill="#FFC329" fill-opacity="0.8" shape-rendering="crispEdges"/>
</g>
<g filter="url(#filter3_bd_2350_1021)">
<path d="M16.2353 18.4002C18.8668 18.4002 21 16.5869 21 14.3502C21 12.2359 19.0939 10.4999 16.6626 10.3163C16.1794 8.25425 14.0385 6.7002 11.4706 6.7002C8.54673 6.7002 6.17647 8.71491 6.17647 11.2002C6.17647 11.238 6.17702 11.2757 6.17811 11.3133C4.35057 11.7124 3 13.1222 3 14.8002C3 16.7884 4.89621 18.4002 7.23529 18.4002H16.2353Z" fill="#CCCCCC" fill-opacity="0.7" shape-rendering="crispEdges"/>
</g>
</g>
<defs>
<filter id="filter0_b_2350_1021" x="-4" y="-4" width="32" height="32" filterUnits="userSpaceOnUse" color-interpolation-filters="sRGB">
<feFlood flood-opacity="0" result="BackgroundImageFix"/>
<feGaussianBlur in="BackgroundImageFix" stdDeviation="2"/>
<feComposite in2="SourceAlpha" operator="in" result="effect1_backgroundBlur_2350_1021"/>
<feBlend mode="normal" in="SourceGraphic" in2="effect1_backgroundBlur_2350_1021" result="shape"/>
</filter>
<filter id="filter1_f_2350_1021" x="12.8" y="3" width="9.2" height="9.19995" filterUnits="userSpaceOnUse" color-interpolation-filters="sRGB">
<feFlood flood-opacity="0" result="BackgroundImageFix"/>
<feBlend mode="normal" in="SourceGraphic" in2="BackgroundImageFix" result="shape"/>
<feGaussianBlur stdDeviation="0.5" result="effect1_foregroundBlur_2350_1021"/>
</filter>
<filter id="filter2_d_2350_1021" x="13.3" y="3.5" width="9.2" height="9.19995" filterUnits="userSpaceOnUse" color-interpolation-filters="sRGB">
<feFlood flood-opacity="0" result="BackgroundImageFix"/>
<feColorMatrix in="SourceAlpha" type="matrix" values="0 0 0 0 0 0 0 0 0 0 0 0 0 0 0 0 0 0 127 0" result="hardAlpha"/>
<feOffset dx="0.5" dy="0.5"/>
<feGaussianBlur stdDeviation="0.5"/>
<feComposite in2="hardAlpha" operator="out"/>
<feColorMatrix type="matrix" values="0 0 0 0 0 0 0 0 0 0 0 0 0 0 0 0 0 0 0.06 0"/>
<feBlend mode="normal" in2="BackgroundImageFix" result="effect1_dropShadow_2350_1021"/>
<feBlend mode="normal" in="SourceGraphic" in2="effect1_dropShadow_2350_1021" result="shape"/>
</filter>
<filter id="filter3_bd_2350_1021" x="1" y="4.7002" width="22" height="15.7" filterUnits="userSpaceOnUse" color-interpolation-filters="sRGB">
<feFlood flood-opacity="0" result="BackgroundImageFix"/>
<feGaussianBlur in="BackgroundImageFix" stdDeviation="1"/>
<feComposite in2="SourceAlpha" operator="in" result="effect1_backgroundBlur_2350_1021"/>
<feColorMatrix in="SourceAlpha" type="matrix" values="0 0 0 0 0 0 0 0 0 0 0 0 0 0 0 0 0 0 127 0" result="hardAlpha"/>
<feOffset dx="0.5" dy="-0.5"/>
<feGaussianBlur stdDeviation="0.5"/>
<feComposite in2="hardAlpha" operator="out"/>
<feColorMatrix type="matrix" values="0 0 0 0 0 0 0 0 0 0 0 0 0 0 0 0 0 0 0.05 0"/>
<feBlend mode="normal" in2="effect1_backgroundBlur_2350_1021" result="effect2_dropShadow_2350_1021"/>
<feBlend mode="normal" in="SourceGraphic" in2="effect2_dropShadow_2350_1021" result="shape"/>
</filter>
</defs>
</svg>
