<svg width="24" height="24" viewBox="0 0 24 24" fill="none" xmlns="http://www.w3.org/2000/svg">
<g filter="url(#filter0_b_2350_1031)">
<rect width="24" height="24" rx="4" fill="white" fill-opacity="0.6"/>
<g filter="url(#filter1_f_2350_1031)">
<path d="M18 10C18 8.4087 17.3679 6.88258 16.2426 5.75736C15.1174 4.63214 13.5913 4 12 4C10.4087 4 8.88258 4.63214 7.75736 5.75736C6.63214 6.88258 6 8.4087 6 10L12 10H18Z" fill="#FFC329"/>
</g>
<path d="M18 10C18 8.4087 17.3679 6.88258 16.2426 5.75736C15.1174 4.63214 13.5913 4 12 4C10.4087 4 8.88258 4.63214 7.75736 5.75736C6.63214 6.88258 6 8.4087 6 10L12 10H18Z" fill="#FFC329" fill-opacity="0.8"/>
<path d="M4 10.75C4 10.3358 4.33579 10 4.75 10H19.25C19.6642 10 20 10.3358 20 10.75C20 11.1642 19.6642 11.5 19.25 11.5H4.75C4.33579 11.5 4 11.1642 4 10.75Z" fill="#CCCCCC" fill-opacity="0.7"/>
<path d="M4 19.75C4 19.3358 4.33579 19 4.75 19H19.25C19.6642 19 20 19.3358 20 19.75C20 20.1642 19.6642 20.5 19.25 20.5H4.75C4.33579 20.5 4 20.1642 4 19.75Z" fill="#CCCCCC" fill-opacity="0.7"/>
<path d="M3 13.75C3 13.3358 3.33579 13 3.75 13H20.25C20.6642 13 21 13.3358 21 13.75C21 14.1642 20.6642 14.5 20.25 14.5H3.75C3.33579 14.5 3 14.1642 3 13.75Z" fill="#CCCCCC" fill-opacity="0.7"/>
<path d="M3 16.75C3 16.3358 3.33579 16 3.75 16H20.25C20.6642 16 21 16.3358 21 16.75C21 17.1642 20.6642 17.5 20.25 17.5H3.75C3.33579 17.5 3 17.1642 3 16.75Z" fill="#CCCCCC" fill-opacity="0.7"/>
</g>
<defs>
<filter id="filter0_b_2350_1031" x="-4" y="-4" width="32" height="32" filterUnits="userSpaceOnUse" color-interpolation-filters="sRGB">
<feFlood flood-opacity="0" result="BackgroundImageFix"/>
<feGaussianBlur in="BackgroundImageFix" stdDeviation="2"/>
<feComposite in2="SourceAlpha" operator="in" result="effect1_backgroundBlur_2350_1031"/>
<feBlend mode="normal" in="SourceGraphic" in2="effect1_backgroundBlur_2350_1031" result="shape"/>
</filter>
<filter id="filter1_f_2350_1031" x="4" y="2" width="16" height="10" filterUnits="userSpaceOnUse" color-interpolation-filters="sRGB">
<feFlood flood-opacity="0" result="BackgroundImageFix"/>
<feBlend mode="normal" in="SourceGraphic" in2="BackgroundImageFix" result="shape"/>
<feGaussianBlur stdDeviation="1" result="effect1_foregroundBlur_2350_1031"/>
</filter>
</defs>
</svg>
