<svg width="24" height="24" viewBox="0 0 24 24" fill="none" xmlns="http://www.w3.org/2000/svg">
<g filter="url(#filter0_b_2350_1033)">
<rect width="24" height="24" rx="4" fill="white" fill-opacity="0.6"/>
<path fill-rule="evenodd" clip-rule="evenodd" d="M8 6.13333C6.31217 6.13333 5.05561 7.04918 4.70711 7.42091C4.31658 7.83747 3.68342 7.83747 3.29289 7.42091C2.90237 7.00435 2.90237 6.32898 3.29289 5.91242C3.94439 5.21748 5.68783 4 8 4H8.00644C9.06293 3.99999 10.9142 3.99998 12.7071 5.91242C13.0034 6.22845 13.3067 6.52524 13.7705 6.76049C14.2346 6.99587 14.9229 7.2 16 7.2C16.4886 7.2 17.1345 7.11441 17.7565 6.90117C18.385 6.6857 18.9119 6.36679 19.2526 5.95801C19.6195 5.51771 20.2516 5.47805 20.6644 5.86943C21.0771 6.26081 21.1143 6.93502 20.7474 7.37532C20.0881 8.16655 19.1984 8.64764 18.3685 8.93216C17.5321 9.21892 16.6781 9.33333 16 9.33333C14.6771 9.33333 13.6868 9.0803 12.9116 8.6871C12.1361 8.29376 11.6394 7.79056 11.2929 7.42091C10.0895 6.13725 8.9446 6.13333 8 6.13333Z" fill="#CCCCCC" fill-opacity="0.7"/>
<path fill-rule="evenodd" clip-rule="evenodd" d="M8 11.4666C6.31217 11.4666 5.05561 12.3824 4.70711 12.7542C4.31658 13.1707 3.68342 13.1707 3.29289 12.7542C2.90237 12.3376 2.90237 11.6622 3.29289 11.2457C3.94439 10.5507 5.68783 9.33325 8 9.33325H8.00644C9.06293 9.33324 10.9142 9.33323 12.7071 11.2457C13.0034 11.5617 13.3067 11.8585 13.7705 12.0937C14.2346 12.3291 14.9229 12.5333 16 12.5333C16.4886 12.5333 17.1345 12.4477 17.7565 12.2344C18.385 12.0189 18.9119 11.7 19.2526 11.2913C19.6195 10.851 20.2516 10.8113 20.6644 11.2027C21.0771 11.5941 21.1143 12.2683 20.7474 12.7086C20.0881 13.4998 19.1984 13.9809 18.3685 14.2654C17.5321 14.5522 16.6781 14.6666 16 14.6666C14.6771 14.6666 13.6868 14.4135 12.9116 14.0204C12.1361 13.627 11.6394 13.1238 11.2929 12.7542C10.0895 11.4705 8.9446 11.4666 8 11.4666Z" fill="#CCCCCC" fill-opacity="0.7"/>
<path fill-rule="evenodd" clip-rule="evenodd" d="M8 16.8001C6.31217 16.8001 5.05561 17.7159 4.70711 18.0877C4.31658 18.5042 3.68342 18.5042 3.29289 18.0877C2.90237 17.6711 2.90237 16.9957 3.29289 16.5792C3.94439 15.8842 5.68783 14.6667 8 14.6667H8.00644C9.06293 14.6667 10.9142 14.6667 12.7071 16.5792C13.0034 16.8952 13.3067 17.192 13.7705 17.4272C14.2346 17.6626 14.9229 17.8667 16 17.8667C16.4886 17.8667 17.1345 17.7812 17.7565 17.5679C18.385 17.3524 18.9119 17.0335 19.2526 16.6248C19.6195 16.1845 20.2516 16.1448 20.6644 16.5362C21.0771 16.9276 21.1143 17.6018 20.7474 18.0421C20.0881 18.8333 19.1984 19.3144 18.3685 19.5989C17.5321 19.8857 16.6781 20.0001 16 20.0001C14.6771 20.0001 13.6868 19.747 12.9116 19.3538C12.1361 18.9605 11.6394 18.4573 11.2929 18.0877C10.0895 16.804 8.9446 16.8001 8 16.8001Z" fill="#CCCCCC" fill-opacity="0.7"/>
</g>
<defs>
<filter id="filter0_b_2350_1033" x="-4" y="-4" width="32" height="32" filterUnits="userSpaceOnUse" color-interpolation-filters="sRGB">
<feFlood flood-opacity="0" result="BackgroundImageFix"/>
<feGaussianBlur in="BackgroundImageFix" stdDeviation="2"/>
<feComposite in2="SourceAlpha" operator="in" result="effect1_backgroundBlur_2350_1033"/>
<feBlend mode="normal" in="SourceGraphic" in2="effect1_backgroundBlur_2350_1033" result="shape"/>
</filter>
</defs>
</svg>
