<svg width="22" height="22" viewBox="0 0 22 22" fill="none" xmlns="http://www.w3.org/2000/svg">
<path fill-rule="evenodd" clip-rule="evenodd" d="M9.66683 0.5C9.0225 0.5 8.50016 1.02233 8.50016 1.66667C8.50016 2.311 9.0225 2.83333 9.66683 2.83333H19.0002V19.1667H9.66683C9.0225 19.1667 8.50016 19.689 8.50016 20.3333C8.50016 20.9777 9.0225 21.5 9.66683 21.5H20.1668C20.8112 21.5 21.3335 20.9777 21.3335 20.3333V1.66667C21.3335 1.02233 20.8112 0.5 20.1668 0.5H9.66683ZM13.9918 10.175L9.32512 5.50838C8.86951 5.05276 8.13082 5.05276 7.6752 5.50838C7.21959 5.96399 7.21959 6.70268 7.6752 7.15829L10.3502 9.83333H1.50016C0.85583 9.83333 0.333496 10.3557 0.333496 11C0.333496 11.6443 0.85583 12.1667 1.50016 12.1667H10.3502L7.6752 14.8417C7.21959 15.2973 7.21959 16.036 7.6752 16.4916C8.13082 16.9472 8.86951 16.9472 9.32512 16.4916L13.9918 11.825C14.4474 11.3693 14.4474 10.6307 13.9918 10.175Z" fill="#121212"/>
</svg>
